<svg xmlns="http://www.w3.org/2000/svg" width="20" height="20" viewBox="0 0 20 20">
    <path fill="#333" d="M9.808 15.94c-1.443 1.413-3.782 1.413-5.225 0-1.444-1.412-1.444-3.7 0-5.113l7.185-7.031c1.084-1.061 2.834-1.061 3.919 0 1.084 1.06 1.084 2.774 0 3.835l-5.879 5.753c-.718.703-1.894.703-2.613 0-.718-.703-.718-1.854 0-2.557l4.9-4.794c.18-.178.471-.178.652 0 .177.173.18.456.007.632l-.007.007-4.898 4.794c-.36.352-.36.927 0 1.279.359.351.947.351 1.306 0l5.879-5.753c.718-.703.718-1.854 0-2.557-.719-.703-1.895-.703-2.613 0l-7.185 7.031c-1.084 1.061-1.084 2.774 0 3.835s2.835 1.061 3.919 0L15.36 9.23c.182-.178.472-.178.653 0 .177.173.18.456.007.632l-.007.007-6.205 6.073z"/>
</svg>
