<svg xmlns="http://www.w3.org/2000/svg" width="32" height="32" viewBox="0 0 32 32">
    <g fill="none">
        <rect width="32" height="32" fill="#313048" rx="2"/>
        <path fill="#FFF" fill-opacity="0" stroke="#FFF" stroke-width="1.067" d="M16.212 18.5l7.545-7.46c.162-.16.243-.357.243-.59 0-.233-.08-.43-.243-.59h0l-1.132-1.12c-.162-.16-.361-.24-.597-.24s-.435.08-.597.24h0l-7.545 7.46 2.326 2.3z"/>
        <path fill="#FFF" stroke="#FFF" stroke-width="1.067" d="M11.348 23.5c.613 0 1.176-.15 1.689-.45.512-.3.92-.703 1.223-1.21.304-.507.456-1.06.456-1.66 0-.44-.115-.853-.344-1.24-.23-.387-.54-.693-.93-.92-.392-.227-.81-.34-1.255-.34-.445 0-.863.113-1.254.34-.391.227-.701.533-.93.92-.23.387-.344.8-.344 1.24 0 .347-.088.653-.263.92-.162.227-.371.403-.627.53-.257.127-.513.19-.769.19.391.507.893.913 1.507 1.22.614.307 1.227.46 1.84.46z"/>
    </g>
</svg>
