<svg xmlns="http://www.w3.org/2000/svg" width="32" height="32" viewBox="0 0 32 32">
    <defs>
        <filter id="prefix__a" width="175%" height="175%" x="-37.5%" y="-37.5%" filterUnits="objectBoundingBox">
            <feOffset dy="2" in="SourceAlpha" result="shadowOffsetOuter1"/>
            <feGaussianBlur in="shadowOffsetOuter1" result="shadowBlurOuter1" stdDeviation="2"/>
            <feColorMatrix in="shadowBlurOuter1" result="shadowMatrixOuter1" values="0 0 0 0 0 0 0 0 0 0 0 0 0 0 0 0 0 0 0.08 0"/>
            <feMerge>
                <feMergeNode in="shadowMatrixOuter1"/>
                <feMergeNode in="SourceGraphic"/>
            </feMerge>
        </filter>
    </defs>
    <g fill="none" fill-rule="evenodd" filter="url(#prefix__a)">
        <rect width="32" height="32" fill="#313048" fill-rule="nonzero" rx="2"/>
        <path fill="#FFF" stroke="#FFF" d="M23.5 12.5h-15V22c0 .414.168.79.44 1.06.27.272.646.44 1.06.44h12c.414 0 .79-.168 1.06-.44.272-.27.44-.646.44-1.06v-9.5zM22 8.5H10c-.414 0-.79.168-1.06.44-.272.27-.44.646-.44 1.06v.5h15V10c0-.414-.168-.79-.44-1.06-.27-.272-.646-.44-1.06-.44z"/>
    </g>
</svg>
