<svg xmlns="http://www.w3.org/2000/svg" width="20" height="20" viewBox="0 0 20 20">
    <path fill="#FFF" d="M10.536 5.617V4H9.464v1.617h1.072zm3.085 1.498l.98-.986-.77-.762-.968.973.758.775zm-7.242 0l.758-.775-.967-.973-.771.762.98.986zM10 13.266c.593 0 1.14-.147 1.64-.44.502-.294.898-.692 1.19-1.196.292-.504.438-1.054.438-1.65 0-.596-.146-1.145-.438-1.65-.292-.503-.688-.902-1.19-1.195-.5-.294-1.047-.44-1.64-.44s-1.14.146-1.64.44c-.502.293-.898.692-1.19 1.196-.292.504-.438 1.053-.438 1.65 0 .595.146 1.145.438 1.649.292.504.688.902 1.19 1.196.5.293 1.047.44 1.64.44zm6-2.72V9.44h-1.634v1.104H16zm-10.366 0V9.44H4v1.104h1.634zm.536 4.087l.967-.999-.758-.775-.98.999.77.775zm7.66 0l.771-.775-.98-.973-.758.75.967.998zM10.536 16v-1.63H9.464V16h1.072z"/>
</svg>
