<svg xmlns="http://www.w3.org/2000/svg" width="32" height="32" viewBox="0 0 32 32">
    <g fill="none">
        <rect width="32" height="32" fill="#FFF" rx="2"/>
        <path fill="#333" d="M15.4 20c.347 0 .675-.15.9-.413l8.401-9.6c.31-.356.385-.853.197-1.284C24.701 8.272 24.27 8 23.801 8h-7.2c-.348 0-.676.15-.901.412l-8.401 9.6c-.31.357-.385.854-.197 1.285.197.431.628.703 1.097.703h7.2zm0-1.2H8.199l3.15-3.6h7.201l-3.15 3.6z"/>
        <path fill="#333" stroke="#333" stroke-width=".1" d="M24.372 23c.347 0 .628.224.628.5 0 .249-.228.455-.526.493l-.102.007H7.628C7.28 24 7 23.776 7 23.5c0-.249.228-.455.526-.493L7.628 23h16.744z"/>
    </g>
</svg>
