<svg xmlns="http://www.w3.org/2000/svg" width="32" height="32" viewBox="0 0 32 32">
    <g fill="none">
        <rect width="32" height="32" fill="#FFF" rx="2"/>
        <path fill="#333" stroke="#333" stroke-width=".1" d="M18.367 14.14c.14 0 .258-.051.352-.156l4.297-4.265L23 12.14c0 .093.034.18.102.257.067.079.153.118.257.118h.266c.094-.01.177-.045.25-.102.073-.057.115-.133.125-.226v-3.61c0-.01-.003-.015-.008-.015h-.008l.032-.188c0-.052-.008-.099-.024-.14-.015-.042-.039-.079-.07-.11-.031-.031-.07-.057-.117-.078-.047-.021-.091-.031-.133-.031l-.188.015h-.015 0l-3.578-.015c-.105 0-.193.036-.266.109-.073.073-.11.161-.11.266v.25c.011.114.058.205.141.273.084.068.177.102.282.102h2.359l-4.281 4.265c-.105.094-.157.211-.157.352 0 .14.052.258.157.351.093.105.21.157.351.157zm-4.719 0c.141 0 .258-.051.352-.156.104-.093.156-.21.156-.351 0-.14-.052-.258-.156-.352L9.719 9.016h2.36c.103 0 .197-.034.28-.102.084-.068.13-.159.141-.273v-.25c0-.105-.036-.193-.11-.266-.072-.073-.16-.11-.265-.11l-3.594.016h-.015 0l-.188-.015c-.042 0-.086.01-.133.03-.047.022-.086.048-.117.079-.031.031-.055.068-.07.11-.016.041-.024.088-.024.14l.032.188h-.008c-.005 0-.008.005-.008.015v3.61c.01.093.052.169.125.226.073.057.156.091.25.102h.281c.104 0 .19-.04.258-.118.068-.078.102-.164.102-.257L9 9.719l4.297 4.265c.094.105.21.157.351.157zm-1.523 9.844c.104 0 .193-.036.266-.109.073-.073.109-.161.109-.266v-.25c-.01-.114-.057-.205-.14-.273-.084-.068-.178-.102-.282-.102h-2.36L14 18.72c.104-.094.156-.211.156-.352 0-.14-.052-.258-.156-.351-.094-.105-.21-.157-.352-.157-.14 0-.257.052-.351.157L9 22.28l.016-2.422c0-.093-.034-.18-.102-.257-.068-.079-.154-.118-.258-.118h-.281c-.094.01-.177.045-.25.102-.073.057-.115.133-.125.227v3.609c0 .01.003.015.008.015h.008l-.032.188c0 .052.008.099.024.14.015.042.039.079.07.11.031.031.07.057.117.078.047.021.091.031.133.031l.188-.015h.015l3.594.015zm11.547 0c.042 0 .086-.01.133-.03.047-.022.086-.048.117-.079.031-.031.055-.068.07-.11.016-.041.024-.088.024-.14l-.032-.188h.008c.005 0 .008-.005.008-.015v-3.61c-.01-.093-.052-.169-.125-.226-.073-.057-.156-.091-.25-.102h-.266c-.104 0-.19.04-.257.118-.068.078-.102.164-.102.257l.016 2.422-4.297-4.265c-.094-.105-.211-.157-.352-.157-.14 0-.258.052-.351.157-.105.093-.157.21-.157.351 0 .14.052.258.157.352l4.28 4.265h-2.358c-.105 0-.198.034-.282.102-.083.068-.13.159-.14.273v.25c0 .105.036.193.109.266.073.073.161.11.266.11l3.578-.016h.015l.188.015z"/>
    </g>
</svg>
