<svg xmlns="http://www.w3.org/2000/svg" width="24" height="24" viewBox="0 0 24 24">
    <g fill="none" fill-rule="evenodd">
        <path d="M0 0L24 0 24 24 0 24z"/>
        <path fill="#4CAC00" d="M12 5c3.866 0 7 3.134 7 7s-3.134 7-7 7-7-3.134-7-7 3.134-7 7-7zm3.428 4.586c-.317-.324-.836-.33-1.16-.014l-3.529 3.441-.945-.914c-.333-.323-.863-.323-1.196 0l-.019.019c-.309.32-.3.829.019 1.138l1.548 1.497c.164.16.369.247.594.247.226 0 .43-.088.595-.247l.002-.002 4.078-4.004c.323-.318.329-.837.013-1.16z"/>
    </g>
</svg>
