<svg xmlns="http://www.w3.org/2000/svg" width="32" height="32" viewBox="0 0 32 32">
    <defs>
        <filter id="ntmfcmygra" width="175%" height="175%" x="-37.5%" y="-37.5%" filterUnits="objectBoundingBox">
            <feOffset dy="2" in="SourceAlpha" result="shadowOffsetOuter1"/>
            <feGaussianBlur in="shadowOffsetOuter1" result="shadowBlurOuter1" stdDeviation="2"/>
            <feColorMatrix in="shadowBlurOuter1" result="shadowMatrixOuter1" values="0 0 0 0 0 0 0 0 0 0 0 0 0 0 0 0 0 0 0.08 0"/>
            <feMerge>
                <feMergeNode in="shadowMatrixOuter1"/>
                <feMergeNode in="SourceGraphic"/>
            </feMerge>
        </filter>
    </defs>
    <g fill="none" fill-rule="evenodd">
        <g fill-rule="nonzero">
            <g>
                <g>
                    <g>
                        <g filter="url(#ntmfcmygra)" transform="translate(-1588 -216) translate(80 200) translate(220) translate(1257 16) translate(31)">
                            <rect width="32" height="32" fill="#FFF" rx="2"/>
                            <path fill="#333" stroke="#333" stroke-width=".1" d="M16 24c1.104 0 2.143-.208 3.117-.625.974-.417 1.823-.987 2.547-1.71.724-.725 1.294-1.574 1.711-2.548.417-.974.625-2.013.625-3.117s-.208-2.143-.625-3.117c-.417-.974-.987-1.823-1.71-2.547-.725-.724-1.574-1.294-2.548-1.711C18.143 8.208 17.104 8 16 8s-2.143.208-3.117.625c-.974.417-1.823.987-2.547 1.71-.724.725-1.294 1.574-1.711 2.548C8.208 13.857 8 14.896 8 16s.208 2.143.625 3.117c.417.974.987 1.823 1.71 2.547.725.724 1.574 1.294 2.548 1.711.974.417 2.013.625 3.117.625zm0-.984c-.969 0-1.878-.185-2.727-.555-.849-.37-1.588-.872-2.218-1.508-.63-.635-1.13-1.377-1.5-2.226C9.185 17.877 9 16.969 9 16c0-.969.185-1.878.555-2.727.37-.849.87-1.588 1.5-2.218.63-.63 1.37-1.13 2.218-1.5C14.123 9.185 15.031 9 16 9c.969 0 1.878.185 2.727.555.849.37 1.588.87 2.218 1.5.63.63 1.13 1.37 1.5 2.218.37.85.555 1.758.555 2.727 0 .969-.185 1.878-.555 2.727-.37.849-.87 1.59-1.5 2.226-.63.636-1.37 1.138-2.218 1.508-.85.37-1.758.555-2.727.555zM16.484 18c0-.177.006-.336.016-.477.01-.14.026-.252.047-.335.02-.084.065-.175.133-.274.067-.099.159-.206.273-.32.23-.23.44-.456.633-.68.193-.224.362-.44.508-.648.135-.22.24-.448.312-.688.073-.24.11-.495.11-.765 0-.365-.055-.69-.164-.977-.11-.287-.274-.529-.493-.727-.229-.208-.497-.362-.804-.46-.308-.1-.664-.149-1.07-.149-.365 0-.699.047-1 .14-.303.094-.574.24-.813.438-.24.198-.417.474-.531.828-.115.354-.167.693-.157 1.016l.016.047h1.156c0-.198.031-.417.094-.656.063-.24.161-.407.297-.5.125-.105.265-.183.422-.235.156-.052.328-.078.515-.078.22 0 .41.031.57.094.162.062.3.15.415.265.114.115.2.256.258.422.057.167.085.354.085.563 0 .187-.02.357-.062.508-.042.15-.104.294-.188.43-.083.124-.197.278-.343.46-.146.182-.318.393-.516.633-.208.188-.377.357-.508.508-.13.15-.216.284-.258.398-.052.115-.09.274-.117.477-.026.203-.039.45-.039.742h1.203zm.032 2.5v-1.266h-1.25V20.5h1.25z"/>
                        </g>
                    </g>
                </g>
            </g>
        </g>
    </g>
</svg>
