<svg xmlns="http://www.w3.org/2000/svg" width="32" height="32" viewBox="0 0 32 32">
    <defs>
        <filter id="9jk4v3ikda" width="175%" height="175%" x="-37.5%" y="-37.5%" filterUnits="objectBoundingBox">
            <feOffset dy="2" in="SourceAlpha" result="shadowOffsetOuter1"/>
            <feGaussianBlur in="shadowOffsetOuter1" result="shadowBlurOuter1" stdDeviation="2"/>
            <feColorMatrix in="shadowBlurOuter1" result="shadowMatrixOuter1" values="0 0 0 0 0 0 0 0 0 0 0 0 0 0 0 0 0 0 0.08 0"/>
            <feMerge>
                <feMergeNode in="shadowMatrixOuter1"/>
                <feMergeNode in="SourceGraphic"/>
            </feMerge>
        </filter>
    </defs>
    <g fill="none" fill-rule="evenodd">
        <g fill-rule="nonzero">
            <g>
                <g>
                    <g>
                        <g filter="url(#9jk4v3ikda)" transform="translate(-3328 -364) translate(80 200) translate(1860 148) translate(1336 16) translate(52)">
                            <rect width="32" height="32" fill="#313048" rx="2"/>
                            <path fill="#FFF" d="M24.806 20.514c.285.321.252.81-.073 1.09C22.495 23.538 19.572 24.5 16 24.5c-3.572 0-6.495-.962-8.733-2.896-.325-.28-.358-.769-.073-1.09.284-.321.779-.354 1.104-.073 1.936 1.673 4.491 2.514 7.702 2.514 3.211 0 5.766-.841 7.702-2.514.325-.28.82-.248 1.104.073zM16 7.5c.432 0 .783.346.783.773V19.09c0 .427-.35.773-.783.773-.432 0-.783-.346-.783-.773V8.273c0-.427.35-.773.783-.773zm3.913.773c.432 0 .783.346.783.772v9.273c0 .427-.35.773-.783.773-.432 0-.783-.346-.783-.773V9.045c0-.426.35-.772.783-.772zm-7.826 0c.432 0 .783.346.783.772v9.273c0 .427-.35.773-.783.773-.432 0-.783-.346-.783-.773V9.045c0-.426.35-.772.783-.772zM8.174 9.818c.432 0 .783.346.783.773v6.182c0 .426-.35.772-.783.772-.432 0-.783-.346-.783-.772V10.59c0-.427.35-.773.783-.773zm15.652 0c.432 0 .783.346.783.773v6.182c0 .426-.35.772-.783.772-.432 0-.783-.346-.783-.772V10.59c0-.427.35-.773.783-.773z"/>
                        </g>
                    </g>
                </g>
            </g>
        </g>
    </g>
</svg>
