<svg xmlns="http://www.w3.org/2000/svg" width="20" height="20" viewBox="0 0 20 20">
    <path fill="#FFF" d="M14.416 14c.3 0 .555-.11.767-.33.211-.22.317-.486.317-.797V7.127c0-.311-.106-.577-.317-.797-.212-.22-.467-.33-.767-.33H5.584c-.3 0-.555.11-.767.33-.211.22-.317.486-.317.797v5.746c0 .311.106.577.317.797.212.22.467.33.767.33h8.832zm-.569-5.155h-1.084V7.718h1.084v1.127zm-1.652 0H11.11V7.718h1.084v1.127zm-4.958 0H6.153V7.718h1.084v1.127zm1.652 0H7.805V7.718H8.89v1.127zm1.653 0H9.458V7.718h1.084v1.127zm3.305 1.719h-1.084V9.436h1.084v1.128zm-1.652 0H11.11V9.436h1.084v1.128zm-4.958 0H6.153V9.436h1.084v1.128zm1.652 0H7.805V9.436H8.89v1.128zm1.653 0H9.458V9.436h1.084v1.128zm1.653 2.309h-4.39v-1.155h4.39v1.155z"/>
</svg>
