<svg xmlns="http://www.w3.org/2000/svg" width="24" height="24" viewBox="0 0 24 24">
    <path fill="#FFF" fill-rule="evenodd" d="M8.745 5c.413 0 .58.046.743.134.163.087.291.215.378.378.088.163.134.33.134.743v11.49c0 .413-.046.58-.134.743a.909.909 0 0 1-.378.378c-.163.088-.33.134-.743.134h-.49c-.413 0-.58-.046-.743-.134a.909.909 0 0 1-.378-.378c-.088-.163-.134-.33-.134-.743V6.255c0-.413.046-.58.134-.743a.909.909 0 0 1 .378-.378c.163-.088.33-.134.743-.134h.49zm7 0c.413 0 .58.046.743.134.163.087.291.215.378.378.088.163.134.33.134.743v11.49c0 .413-.046.58-.134.743a.909.909 0 0 1-.378.378c-.163.088-.33.134-.743.134h-.49c-.413 0-.58-.046-.743-.134a.909.909 0 0 1-.378-.378c-.088-.163-.134-.33-.134-.743V6.255c0-.413.046-.58.134-.743a.909.909 0 0 1 .378-.378c.163-.088.33-.134.743-.134h.49z"/>
</svg>
