<svg xmlns="http://www.w3.org/2000/svg" width="24" height="24" viewBox="0 0 24 24">
    <g fill="#FFF" fill-rule="nonzero">
        <path d="M11 15.739V8.26a1 1 0 0 0-1.673-.74l-1.86 1.692a1 1 0 0 1-.673.26H4a1 1 0 0 0-1 1v3.053a1 1 0 0 0 1 1h2.794a1 1 0 0 1 .673.26l1.86 1.692a1 1 0 0 0 1.673-.74z"/>
        <path d="M18.338 20C20.113 17.583 21 14.917 21 12s-.887-5.583-2.662-8l-.845.625c1.634 2.194 2.45 4.653 2.45 7.375 0 2.722-.816 5.18-2.45 7.375l.845.625z" opacity=".2"/>
        <path d="M15.676 18.083c1.352-1.833 2.028-3.86 2.028-6.083 0-2.222-.676-4.25-2.028-6.083l-.887.666C16 8.167 16.606 9.973 16.606 12c0 2.028-.606 3.833-1.817 5.417l.887.666z" opacity=".2"/>
        <path d="M12.845 16.167c.93-1.278 1.394-2.667 1.394-4.167s-.464-2.889-1.394-4.167L12 8.5a5.852 5.852 0 0 1 1.14 3.5c0 1.278-.38 2.444-1.14 3.5l.845.667z"/>
    </g>
</svg>
