<svg xmlns="http://www.w3.org/2000/svg" width="24" height="24" viewBox="0 0 24 24">
    <g fill="#fff">
        <path d="M11 15.739V8.26c0-.552-.448-1-1-1-.249 0-.489.093-.673.26l-1.86 1.692c-.184.168-.424.26-.673.26H4c-.552 0-1 .448-1 1v3.053c0 .553.448 1 1 1h2.794c.249 0 .489.093.673.26l1.86 1.692c.409.372 1.041.342 1.413-.066.167-.185.26-.424.26-.673zM18.338 20C20.113 17.583 21 14.917 21 12s-.887-5.583-2.662-8l-.845.625c1.634 2.194 2.45 4.653 2.45 7.375 0 2.722-.816 5.18-2.45 7.375l.845.625z"/>
        <path d="M15.676 18.083c1.352-1.833 2.028-3.86 2.028-6.083 0-2.222-.676-4.25-2.028-6.083l-.887.666C16 8.167 16.606 9.973 16.606 12c0 2.028-.606 3.833-1.817 5.417l.887.666zM12.845 16.167c.93-1.278 1.394-2.667 1.394-4.167s-.464-2.889-1.394-4.167L12 8.5c.76 1.056 1.14 2.222 1.14 3.5s-.38 2.444-1.14 3.5l.845.667z"/>
    </g>
</svg>
