<svg xmlns="http://www.w3.org/2000/svg" width="32" height="32" viewBox="0 0 32 32">
    <g fill="none">
        <rect width="32" height="32" fill="#313048" rx="2"/>
        <path fill="#FFF" stroke="#FFF" stroke-width=".2" d="M16.016 23.984c.052 0 .099-.007.14-.023.042-.016.078-.044.11-.086l.125-.125h.015v-.016h0l1.844-2.015c.073-.073.11-.162.11-.266 0-.104-.037-.193-.11-.265l-.125-.094c-.073-.073-.156-.102-.25-.086-.094.015-.177.06-.25.133l-1.078 1.203V16.5h5.828l-1.203 1.078c-.073.063-.117.143-.133.242-.016.1.013.185.086.258l.094.125c.073.073.161.11.265.11.105 0 .193-.037.266-.11l1.984-1.797.141-.14c.042-.032.07-.07.086-.118.016-.046.023-.09.023-.132 0-.052-.007-.1-.023-.141-.016-.042-.044-.078-.086-.11l-.125-.124v-.016h0-.016 0l-2.015-1.844c-.073-.073-.162-.11-.266-.11-.104 0-.193.037-.265.11l-.094.125c-.073.073-.102.156-.086.25.015.094.06.177.133.25l1.203 1.094H16.53V9.656l1.094 1.203c.073.073.156.118.25.133.094.016.177-.013.25-.086l.125-.094c.073-.072.11-.161.11-.265 0-.104-.037-.193-.11-.266l-1.766-1.937c-.02-.042-.047-.081-.078-.117-.031-.037-.067-.066-.11-.086l-.03-.016c-.032-.042-.068-.07-.11-.086-.041-.016-.088-.023-.14-.023-.042 0-.086.007-.133.023-.047.016-.086.044-.117.086l-.125.125-.016.016-1.797 1.984c-.073.073-.11.161-.11.266 0 .104.037.192.11.265l.125.094c.073.073.159.102.258.086s.18-.06.242-.133l1.078-1.203v5.86H9.656l1.203-1.079c.073-.073.118-.156.133-.25.016-.094-.013-.177-.086-.25l-.094-.125c-.072-.073-.161-.11-.265-.11-.104 0-.193.037-.266.11l-1.937 1.766c-.042.02-.081.047-.117.078-.037.031-.066.068-.086.11l-.016.03c-.042.032-.07.068-.086.11-.016.042-.023.089-.023.14 0 .042.007.087.023.133.016.047.044.086.086.118l.125.125.016.015 1.984 1.797c.073.073.161.11.266.11.104 0 .192-.037.265-.11l.094-.125c.073-.073.102-.159.086-.258s-.06-.18-.133-.242L9.61 16.5h5.922v5.875l-1.078-1.203c-.062-.073-.143-.117-.242-.133s-.185.013-.258.086l-.125.094c-.073.073-.11.161-.11.265 0 .105.037.193.11.266l1.797 1.984.016.016.125.125c.03.042.07.07.117.086.047.016.091.023.133.023z"/>
    </g>
</svg>
