<svg xmlns="http://www.w3.org/2000/svg" width="24" height="24" viewBox="0 0 24 24">
    <g fill="none" fill-rule="evenodd">
        <g fill="#fff" fill-rule="nonzero">
            <g>
                <g>
                    <g>
                        <g>
                            <g>
                                <path d="M11.625 5.3l7.399 5.92c.431.344.501.973.156 1.405-.046.057-.098.11-.156.156l-7.4 5.92c-.43.344-1.06.274-1.405-.157-.142-.177-.219-.398-.219-.625V6.081c0-.553.448-1 1-1 .227 0 .447.077.625.219zM6.255 5h.49c.413 0 .58.046.743.134.163.087.291.215.378.378.088.163.134.33.134.743v11.49c0 .413-.046.58-.134.743-.087.163-.215.291-.378.378-.163.088-.33.134-.743.134h-.49c-.413 0-.58-.046-.743-.134-.163-.087-.291-.215-.378-.378-.088-.163-.134-.33-.134-.743V6.255c0-.413.046-.58.134-.743.087-.163.215-.291.378-.378.163-.088.33-.134.743-.134z" transform="translate(-396 -784) translate(320 64) translate(20 20) translate(0 692) translate(8 8) translate(48)"/>
                            </g>
                        </g>
                    </g>
                </g>
            </g>
        </g>
    </g>
</svg>
