<svg xmlns="http://www.w3.org/2000/svg" width="32" height="32" viewBox="0 0 32 32">
    <g fill="none">
        <rect width="32" height="32" fill="#313048" rx="2"/>
        <path fill="#FFF" stroke="#FFF" stroke-width=".1" d="M9.875 13.984l3.578-.015h.203c.042 0 .086-.008.133-.024.047-.015.086-.039.117-.07.031-.042.055-.083.07-.125.016-.042.024-.089.024-.14l-.031-.188h.015v-3.61c-.01-.104-.052-.184-.125-.242-.073-.057-.156-.086-.25-.086h-.265c-.104 0-.19.037-.258.11-.068.073-.102.161-.102.265L13 12.281 8.844 8.156c-.094-.094-.211-.14-.352-.14-.14 0-.258.046-.351.14-.105.104-.157.224-.157.36 0 .135.052.255.157.359l4.14 4.094-2.36.015c-.103-.01-.197.019-.28.086-.084.068-.13.16-.141.274v.265c0 .105.036.193.11.266.072.073.16.11.265.11zm12.25 0c.104 0 .193-.036.266-.109.073-.073.109-.161.109-.266v-.265c-.01-.115-.057-.206-.14-.274-.084-.067-.178-.096-.282-.086l-2.36-.015 4.141-4.094c.105-.104.157-.224.157-.36 0-.135-.052-.255-.157-.359-.093-.094-.21-.14-.351-.14-.14 0-.258.046-.352.14L19 12.281l.016-2.422c0-.104-.034-.192-.102-.265-.068-.073-.154-.11-.258-.11h-.265c-.094 0-.177.029-.25.086-.073.058-.115.138-.125.242v3.61h.015l-.031.187c0 .052.008.1.023.141.016.042.04.083.07.125.032.031.071.055.118.07.047.016.091.024.133.024h.203l3.578.015zm-13.633 10c.14 0 .258-.047.352-.14L13 19.704l-.016 2.437c0 .104.034.192.102.265.068.073.154.11.258.11h.265c.094 0 .177-.029.25-.086.073-.058.115-.138.125-.242v-3.61h-.015 0l.031-.203c0-.052-.008-.099-.023-.14-.016-.042-.04-.084-.07-.126-.032-.03-.071-.054-.118-.07-.047-.016-.091-.023-.133-.023h-.203 0L9.875 18c-.104 0-.193.036-.266.11-.073.072-.109.16-.109.265v.266c.01.114.057.205.14.273.084.068.178.096.282.086l2.36.016-4.141 4.109c-.105.104-.157.224-.157.36 0 .135.052.255.157.359.093.093.21.14.351.14zm15.016 0c.14 0 .258-.047.351-.14.105-.104.157-.224.157-.36 0-.135-.052-.255-.157-.359l-4.14-4.11 2.36-.015c.103.01.197-.018.28-.086.084-.068.13-.159.141-.273v-.266c0-.094-.036-.177-.11-.25-.072-.073-.16-.115-.265-.125h-3.813c-.041 0-.085.013-.132.04-.047.025-.086.054-.117.085-.032.042-.055.083-.07.125-.016.042-.024.089-.024.14l.031.188h-.016 0v3.61c.01.104.052.184.125.242.073.057.157.086.25.086h.282c.104 0 .19-.037.257-.11.068-.073.102-.161.102-.265l-.016-2.407 4.172 4.11c.094.093.211.14.352.14z"/>
    </g>
</svg>
