<svg xmlns="http://www.w3.org/2000/svg" width="24" height="24" viewBox="0 0 24 24">
    <path fill="#FFF" d="M16.076 23c1.06 0 1.921-.186 2.424-.465l-.557-2.417c-.413.149-.933.26-1.508.26-1.077 0-2.28-.353-2.89-1.302 2.567-.8 4.2-3.29 4.2-6.973C17.746 7.585 15.269 5 11.624 5S5.5 7.566 5.5 12.103c0 3.905 1.831 6.453 4.669 7.104.97 2.212 2.998 3.793 5.907 3.793zm-4.453-6.36c-1.76 0-2.837-1.654-2.837-4.537 0-2.677 1.077-4.258 2.837-4.258 1.76 0 2.855 1.58 2.855 4.258 0 2.883-1.095 4.537-2.855 4.537z"/>
</svg>
