<svg xmlns="http://www.w3.org/2000/svg" width="32" height="32" viewBox="0 0 32 32">
    <g fill="none">
        <rect width="32" height="32" fill="#FFF" rx="2"/>
        <path fill="#333" stroke="#333" stroke-width=".2" d="M23.943 14.323l-1.219 2.39h-.016 0v.016h0l-.078.156c-.031.042-.065.079-.101.11-.037.031-.076.052-.118.062-.041.01-.088.013-.14.008-.052-.005-.1-.023-.14-.055l-.157-.093h0l-2.313-1.485c-.083-.052-.14-.127-.171-.226-.032-.1-.021-.196.03-.29l.079-.109c.052-.093.13-.143.234-.148.105-.005.198.018.282.07l1.359.86h0c-.052-.823-.253-1.589-.602-2.297-.349-.709-.804-1.326-1.367-1.852-.562-.526-1.208-.94-1.937-1.242-.73-.302-1.505-.453-2.328-.453-.865 0-1.675.164-2.43.492-.755.328-1.417.776-1.984 1.344-.568.567-1.016 1.231-1.344 1.992-.328.76-.492 1.568-.492 2.422 0 .864.164 1.677.492 2.437.328.76.776 1.425 1.344 1.992.567.568 1.229 1.016 1.984 1.344.755.328 1.565.492 2.43.492.5 0 .984-.054 1.453-.164.468-.109.916-.27 1.343-.484.428-.214.826-.477 1.196-.79.37-.312.706-.666 1.008-1.062.083-.104.192-.166.328-.187.135-.02.26.01.375.094.104.083.166.192.187.328.021.135-.01.26-.094.375-.343.458-.731.867-1.164 1.226-.432.36-.895.662-1.39.907-.495.244-1.016.432-1.563.562-.547.13-1.106.195-1.68.195-1 0-1.94-.19-2.82-.57-.88-.38-1.648-.9-2.304-1.562-.657-.662-1.175-1.433-1.555-2.313-.38-.88-.57-1.82-.57-2.82 0-1 .19-1.94.57-2.82.38-.88.898-1.649 1.555-2.305.656-.656 1.424-1.175 2.304-1.555.88-.38 1.82-.57 2.82-.57.938 0 1.826.172 2.665.515.838.344 1.583.813 2.234 1.407.651.593 1.18 1.294 1.586 2.101.406.808.651 1.675.734 2.602l.735-1.438c.041-.083.112-.146.21-.187.1-.042.19-.037.274.015l.125.047c.094.052.154.128.18.227.026.099.013.195-.04.289z"/>
    </g>
</svg>
