<svg xmlns="http://www.w3.org/2000/svg" width="24" height="24" viewBox="0 0 24 24">
    <path fill="#fff" d="M13.658 20c.093 0 .175-.032.247-.096.073-.064.122-.148.148-.25l.296-2.096c.408-.154.876-.417 1.402-.789l2.034.789c.105.038.2.045.286.019.086-.026.155-.083.207-.173l1.659-2.77c.052-.09.072-.185.06-.288-.014-.102-.06-.186-.14-.25l-1.717-1.308c.027-.179.04-.442.04-.788 0-.346-.013-.609-.04-.788l1.718-1.308c.079-.064.125-.148.138-.25.013-.103-.007-.199-.06-.289l-1.658-2.769c-.052-.09-.121-.147-.207-.173-.085-.026-.18-.02-.286.02l-2.034.788c-.421-.334-.888-.596-1.402-.789l-.296-2.096c-.026-.102-.075-.186-.148-.25-.072-.064-.154-.096-.247-.096h-3.316c-.093 0-.175.032-.247.096-.073.064-.115.148-.129.25l-.315 2.096c-.448.18-.909.443-1.382.789l-2.054-.789c-.21-.09-.375-.038-.493.154l-1.659 2.77c-.052.09-.072.185-.06.288.014.102.06.186.14.25l1.737 1.308c-.027.179-.04.442-.04.788 0 .346.013.609.04.788l-1.738 1.308c-.079.064-.125.148-.138.25-.013.103.007.199.06.289l1.658 2.769c.118.192.283.243.493.154l2.054-.789c.368.308.829.57 1.382.789l.315 2.096c.014.102.056.186.129.25.072.064.154.096.247.096h3.316zM12 14.808c-.513 0-.99-.129-1.431-.385-.441-.256-.793-.6-1.057-1.029-.263-.43-.395-.894-.395-1.394 0-.5.132-.968.395-1.404.264-.436.616-.782 1.057-1.038.44-.257.918-.385 1.431-.385s.994.128 1.441.385c.448.256.803.602 1.066 1.038.264.436.395.904.395 1.404 0 .5-.131.965-.395 1.394-.263.43-.618.773-1.066 1.03-.447.255-.928.384-1.441.384z"/>
</svg>
