<svg xmlns="http://www.w3.org/2000/svg" width="20" height="20" viewBox="0 0 20 20">
    <g fill="none" fill-rule="evenodd">
        <g fill="#fff" fill-rule="nonzero">
            <g>
                <g>
                    <g>
                        <path d="M13.824 7.083c.05 0 .109-.095.176-.286-.034-.156-.067-.278-.1-.365-.051-.139-.21-.234-.48-.286l-1.334-.156c-.118-.018-.202-.079-.252-.183-.034-.07-.072-.16-.114-.273-.042-.113-.075-.191-.1-.235-.026-.043-.055-.095-.089-.156-.033-.06-.067-.1-.1-.117-.034-.017-.076-.026-.126-.026H8.71c-.05 0-.092.009-.126.026-.033.017-.067.052-.1.104-.034.052-.06.104-.076.156-.017.053-.046.13-.088.235l-.113.286c-.05.104-.135.165-.252.183l-1.335.182c-.269.052-.429.147-.479.286l-.1.339c-.034.156-.047.243-.038.26.008.018.08.026.214.026h7.607zM12.64 15c.117 0 .206-.013.264-.04.06-.025.097-.06.114-.103.016-.044.033-.126.05-.248l.479-6.302c.016-.173 0-.282-.05-.325-.051-.044-.177-.065-.379-.065H6.922c-.202 0-.328.026-.378.078-.05.052-.067.156-.05.312l.478 6.302c.034.174.067.282.101.326.034.043.143.065.328.065h5.239z" transform="translate(-504 -1468) translate(320 64) translate(20 760) translate(164 644)"/>
                    </g>
                </g>
            </g>
        </g>
    </g>
</svg>
