<svg xmlns="http://www.w3.org/2000/svg" width="32" height="32" viewBox="0 0 32 32">
    <g fill="none">
        <rect width="32" height="32" fill="#FFF" rx="2"/>
        <path fill="#333" stroke="#333" stroke-width=".2" d="M8.042 14.323l1.218 2.39h.016v.016h0l.078.156c.031.042.065.079.102.11.036.031.075.052.117.062.042.01.088.013.14.008.053-.005.1-.023.141-.055l.156-.093h0l2.313-1.485c.083-.052.14-.127.172-.226.031-.1.02-.196-.031-.29l-.079-.109c-.052-.093-.13-.143-.234-.148-.104-.005-.198.018-.281.07l-1.36.86h0c.053-.823.253-1.589.602-2.297.349-.709.805-1.326 1.367-1.852.563-.526 1.209-.94 1.938-1.242.729-.302 1.505-.453 2.328-.453.864 0 1.674.164 2.43.492.755.328 1.416.776 1.984 1.344.568.567 1.015 1.231 1.344 1.992.328.76.492 1.568.492 2.422 0 .864-.164 1.677-.492 2.437-.329.76-.776 1.425-1.344 1.992-.568.568-1.23 1.016-1.985 1.344-.755.328-1.565.492-2.43.492-.5 0-.984-.054-1.452-.164-.47-.109-.917-.27-1.344-.484-.427-.214-.826-.477-1.195-.79-.37-.312-.706-.666-1.008-1.062-.084-.104-.193-.166-.328-.187-.136-.02-.26.01-.375.094-.104.083-.167.192-.188.328-.02.135.01.26.094.375.344.458.732.867 1.164 1.226.432.36.896.662 1.39.907.495.244 1.016.432 1.563.562.547.13 1.107.195 1.68.195 1 0 1.94-.19 2.82-.57.88-.38 1.649-.9 2.305-1.562.656-.662 1.174-1.433 1.554-2.313.38-.88.57-1.82.57-2.82 0-1-.19-1.94-.57-2.82-.38-.88-.898-1.649-1.554-2.305-.656-.656-1.425-1.175-2.305-1.555-.88-.38-1.82-.57-2.82-.57-.938 0-1.826.172-2.664.515-.839.344-1.584.813-2.235 1.407-.65.593-1.18 1.294-1.586 2.101-.406.808-.65 1.675-.734 2.602l-.734-1.438c-.042-.083-.112-.146-.211-.187-.1-.042-.19-.037-.274.015l-.125.047c-.093.052-.153.128-.18.227-.025.099-.012.195.04.289z"/>
    </g>
</svg>
