<svg xmlns="http://www.w3.org/2000/svg" width="32" height="32" viewBox="0 0 32 32">
    <defs>
        <filter id="prefix__a" width="175%" height="175%" x="-37.5%" y="-37.5%" filterUnits="objectBoundingBox">
            <feOffset dy="2" in="SourceAlpha" result="shadowOffsetOuter1"/>
            <feGaussianBlur in="shadowOffsetOuter1" result="shadowBlurOuter1" stdDeviation="2"/>
            <feColorMatrix in="shadowBlurOuter1" result="shadowMatrixOuter1" values="0 0 0 0 0 0 0 0 0 0 0 0 0 0 0 0 0 0 0.08 0"/>
            <feMerge>
                <feMergeNode in="shadowMatrixOuter1"/>
                <feMergeNode in="SourceGraphic"/>
            </feMerge>
        </filter>
    </defs>
    <g fill="none" filter="url(#prefix__a)">
        <rect width="32" height="32" fill="#FFF" rx="2"/>
        <path fill="#333" stroke="#333" stroke-width=".2" d="M23.5 24c.135 0 .255-.052.36-.156.093-.094.14-.211.14-.352 0-.14-.047-.258-.14-.351l-4.422-4.453c.468-.563.838-1.201 1.109-1.915.27-.713.406-1.466.406-2.257 0-.907-.17-1.753-.508-2.54-.338-.786-.802-1.476-1.39-2.07-.589-.594-1.279-1.06-2.07-1.398C16.192 8.169 15.348 8 14.452 8c-.896 0-1.74.17-2.531.508-.792.338-1.482.805-2.07 1.398-.589.594-1.053 1.284-1.391 2.07-.339.787-.508 1.633-.508 2.54 0 .895.17 1.74.508 2.53.338.793.802 1.483 1.39 2.071.59.589 1.28 1.052 2.07 1.39.793.34 1.636.509 2.532.509.823 0 1.6-.144 2.328-.43.73-.287 1.38-.68 1.953-1.18l4.407 4.438c.104.104.224.156.359.156zm-9.047-4c-.76 0-1.474-.146-2.14-.438-.667-.291-1.25-.684-1.75-1.18-.5-.494-.894-1.075-1.18-1.741-.287-.667-.43-1.38-.43-2.141 0-.76.143-1.474.43-2.14.286-.667.68-1.248 1.18-1.743.5-.495 1.083-.888 1.75-1.18.666-.291 1.38-.437 2.14-.437.75 0 1.458.146 2.125.438.667.291 1.25.684 1.75 1.18.5.494.896 1.075 1.188 1.741.291.667.437 1.38.437 2.141 0 .76-.146 1.474-.437 2.14-.292.667-.688 1.248-1.188 1.743-.5.495-1.083.888-1.75 1.18-.667.291-1.375.437-2.125.437zm2.5-5c.136 0 .253-.05.352-.148.099-.1.148-.217.148-.352 0-.135-.05-.253-.148-.352-.1-.099-.216-.148-.352-.148h-5c-.146 0-.265.05-.36.148-.093.1-.14.217-.14.352 0 .135.047.253.14.352.095.099.214.148.36.148h5z"/>
    </g>
</svg>
