<svg xmlns="http://www.w3.org/2000/svg" xmlns:xlink="http://www.w3.org/1999/xlink" width="32" height="32" viewBox="0 0 32 32">
    <defs>
        <path id="prefix__a" d="M22.468 9.876L25.864 7.3v21.245a15.862 15.862 0 01-8.57 3.399h-2.67a15.862 15.862 0 01-8.57-3.4V7.302L9.45 9.876h13.018z"/>
    </defs>
    <g fill="none" fill-rule="evenodd">
        <path fill="#5B6FAA" d="M6.052 28.544A15.986 15.986 0 010 16C0 7.163 7.145 0 15.96 0c8.813 0 15.958 7.163 15.958 16 0 5.084-2.364 9.614-6.051 12.544H6.052z"/>
        <mask id="prefix__b" fill="#fff">
            <use xlink:href="#prefix__a"/>
        </mask>
        <use fill="#E3F0FF" xlink:href="#prefix__a"/>
        <path fill="#B3D1DA" d="M7.573 17.993a.468.468 0 01.467.458c0 .25-.21.455-.467.458l-1.79.026v-.967l1.79.025zm0 2.023a.468.468 0 01.467.458c0 .25-.21.455-.467.458l-1.79.026v-.967l1.79.025zm0 2.023a.468.468 0 01.467.458c0 .25-.21.455-.467.458l-1.79.026v-.967l1.79.025zm16.839-4.046l1.789-.025v.967l-1.79-.026a.468.468 0 01-.467-.458c0-.249.21-.454.468-.458zm0 2.023l1.789-.025v.967l-1.79-.026a.468.468 0 01-.467-.458c0-.249.21-.454.468-.458zm0 2.023l1.789-.025v.967l-1.79-.026a.468.468 0 01-.467-.458c0-.249.21-.454.468-.458zm-7.597-10.758l-.025-1.405h.967l-.026 1.405c-.003.203-.209.368-.458.368-.249 0-.454-.165-.458-.368zm-2.568 0l-.025-1.405h.967l-.026 1.405c-.004.203-.209.368-.458.368-.25 0-.454-.165-.458-.368z" mask="url(#prefix__b)"/>
        <path fill="#40486F" d="M15.902 21.415v-.843a.526.526 0 00-.483-.525v-.002h-.12a.442.442 0 110-.886h1.53a.442.442 0 110 .886h-.08a.526.526 0 00-.524.527v.843h.122c.11 0 .2.09.2.202a.2.2 0 01-.2.201h-.567a.2.2 0 01-.2-.201.2.2 0 01.2-.202h.122zM20.013 16.016c.4 0 .725.36.725.806 0 .445-.325.806-.725.806-.4 0-.726-.361-.726-.806 0-.445.325-.806.726-.806M12.114 16.016c.401 0 .726.36.726.806 0 .445-.325.806-.726.806-.4 0-.725-.361-.725-.806 0-.445.325-.806.725-.806" mask="url(#prefix__b)"/>
    </g>
</svg>
